<?xml version="1.0" encoding="utf-8"?>
<!-- Generator: Adobe Illustrator 21.0.0, SVG Export Plug-In . SVG Version: 6.00 Build 0)  -->
<svg version="1.1" id="Calque_1" xmlns="http://www.w3.org/2000/svg" xmlns:xlink="http://www.w3.org/1999/xlink" x="0px" y="0px"
	 viewBox="0 0 250 280" style="enable-background:new 0 0 250 280;" xml:space="preserve">
<style type="text/css">
	.st0{fill:#FFFFFF;}
</style>
<g>
	<g>
		<g>
			<path class="st0" d="M224.4,68.2c-18.3,2.3-41.5-2.3-109.8-33C46.3,4.5,0,102.3,0,102.3s15.9-8,22-10.2
				c6.1-2.3,86.6,34.1,125.6,36.4C186.6,130.7,242.7,65.9,224.4,68.2z M59.2,73c-3.8,0-6.9-2.7-6.9-6c0-3.3,3.1-6,6.9-6
				c3.8,0,6.8,2.7,6.8,6C66,70.3,63,73,59.2,73z"/>
		</g>
	</g>
	<path class="st0" d="M126.9,235.6c0,0.4-0.8,45.8-1.8,45.8l0,0c-1,0-1.8-0.3-1.8-0.6V112c0-0.4,0.8-0.6,1.8-0.6l0,0
		c1,0,1.8,0.3,1.8,0.6V235.6z"/>
	<path class="st0" d="M145.9,280.7c0,0.4-0.8,0.6-1.8,0.6l0,0c-1,0-1.8-0.3-1.8-0.6V112.5c0-0.4,0.8-0.6,1.8-0.6l0,0
		c1,0,1.8,0.3,1.8,0.6V280.7z"/>
	<path class="st0" d="M199.6,94.1c0,0,73.6-67.6,30.6-83.4c-43-15.8-45.6,8.5-39.5,19.7c0,0,8.6-5.8,10.8,0.1
		c2.2,5.8-9.8,10-11.4,6.8c-1.7-3.2-20.1-27.8,9-35.4c29.1-7.7,46.5,10.6,47,13.7c0.5,3.2,18.5,21.9-26.4,68.1L199.6,94.1z"/>
</g>
</svg>
